<svg height="464pt" viewBox="-16 0 464 464" width="464pt" xmlns="http://www.w3.org/2000/svg"><path d="m160 336 16 24-16 40-32-24zm0 0" fill="#1e81ce"/><path d="m96 336 32 40-32 24-16-40zm0 0" fill="#1e81ce"/><path d="m160 336c53.019531 0 96 42.980469 96 96v32h-256v-32c0-53.019531 42.980469-96 96-96l-16 24 16 40 32-24 32 24 16-40zm0 0" fill="#3d9ae2"/><path d="m48 232c.027344-8.824219 7.175781-15.972656 16-16h8v32h-8c-8.808594-.066406-15.933594-7.191406-16-16zm0 0" fill="#f1cfa2"/><path d="m192 216c8.824219.027344 15.972656 7.175781 16 16-.066406 8.808594-7.191406 15.933594-16 16h-8v-32zm0 0" fill="#f1cfa2"/><path d="m160 300.71875v35.28125l-32 40-32-40v-35.28125c5.058594 2.160156 10.5 3.277344 16 3.28125h32c5.5-.003906 10.941406-1.121094 16-3.28125zm0 0" fill="#ffdaaa"/><path d="m184 216v48c-.035156 15.910156-9.445312 30.300781-24 36.71875-5.058594 2.160156-10.5 3.277344-16 3.28125h-32c-5.5-.003906-10.941406-1.121094-16-3.28125-14.554688-6.417969-23.964844-20.808594-24-36.71875v-56s64-8 88-40c0 0 8 24 24 32zm0 0" fill="#ffdaaa"/><path d="m64 216c-8.824219.027344-15.972656 7.175781-16 16v-48c0-44.183594 35.816406-80 80-80s80 35.816406 80 80v48c-.027344-8.824219-7.175781-15.972656-16-16h-8v-16c-16-8-24-32-24-32-24 32-88 40-88 40v8zm0 0" fill="#787680"/><path d="m336 0c53.019531 0 96 42.980469 96 96s-42.980469 96-96 96c-19.984375.035156-39.46875-6.238281-55.679688-17.921875l-40.320312 17.921875 17.921875-40.320312c-11.683594-16.210938-17.957031-35.695313-17.921875-55.679688 0-53.019531 42.980469-96 96-96zm0 0" fill="#ffde55"/><g fill="#ee8700"><path d="m298.34375 125.65625-24-24c-3.121094-3.125-3.121094-8.1875 0-11.3125l24-24 11.3125 11.3125-18.34375 18.34375 18.34375 18.34375zm0 0"/><path d="m373.65625 125.65625-11.3125-11.3125 18.34375-18.34375-18.34375-18.34375 11.3125-11.3125 24 24c3.121094 3.125 3.121094 8.1875 0 11.3125zm0 0"/><path d="m312.585938 133.039062 31.96875-80.011718 14.859374 5.9375-31.972656 80.011718zm0 0"/></g><path d="m160 300.71875v16c-5.058594 2.160156-10.5 3.277344-16 3.28125h-32c-5.5-.003906-10.941406-1.121094-16-3.28125v-16c5.058594 2.160156 10.5 3.277344 16 3.28125h32c5.5-.003906 10.941406-1.121094 16-3.28125zm0 0" fill="#f1cfa2"/><path d="m112 224c0 4.417969-3.582031 8-8 8s-8-3.582031-8-8 3.582031-8 8-8 8 3.582031 8 8zm0 0" fill="#754c29"/><path d="m160 224c0 4.417969-3.582031 8-8 8s-8-3.582031-8-8 3.582031-8 8-8 8 3.582031 8 8zm0 0" fill="#754c29"/></svg>